<svg width="127" height="128" viewBox="0 0 127 128" fill="none" xmlns="http://www.w3.org/2000/svg">
<path d="M0 0H127V128H118.5V12H9V128H0V0Z" fill="black"/>
<path d="M14 14H19.5L28 21H99L106.5 14H112V22L106.5 27V65L99 64V31H28V64L19.5 64.5V27L14 22V14Z" fill="black"/>
<path d="M23.5 14H103L96.5 20H29.5L23.5 14Z" fill="black"/>
<path d="M38.5 50.5H87.5L96.5 65.5H99L109 67L107.5 73H100L103 78L107.5 84.5V92H109V124.5H94.5V119L64 118.5L31.5 119V124.5H18V92H19.5V84.5L23.5 78L27 73H18L17 67L27 65.5H29.5L38.5 50.5Z" fill="black"/>
</svg>
