<svg width="189" height="118" viewBox="0 0 189 118" fill="none" xmlns="http://www.w3.org/2000/svg">
<path fill-rule="evenodd" clip-rule="evenodd" d="M63 17.5V23.5H18.5V17.5H63ZM63 2V8H18.5V6H21V0H0V6H1.5V118H187V6H189V0.5H168V6H170V8H125V2H116V8H72V2H63ZM125 33V38.5H170V33H125ZM125 48V53H170V48H125ZM63 48V53H18.5V48H63ZM18.5 38.5V33H63V38.5H18.5ZM170 23.5V17.5H125V23.5H170ZM116 17.5V23.5H72V17.5H116ZM116 33H72V38.5H116V33ZM72 48H116V53H72V48ZM72 62.5V69H116V62.5H72ZM18.5 69H63V62.5H18.5V69ZM125 69H170V62.5H125V69Z" fill="black"/>
</svg>
