<svg width="189" height="118" viewBox="0 0 189 118" fill="none" xmlns="http://www.w3.org/2000/svg">
<path fill-rule="evenodd" clip-rule="evenodd" d="M82 28H84.5V12H86.5V28H89V12H91V28H93.5V12H95.5V28H98V12H100V28H102.5V12H104.5V28H107V12H109V28H111.5V12H113.5V28H116V12H118V28H120.5V12H122.5V28H125V12H127V28H129.5V12H131.5V28H134.5V12H136.5V28H139V12H141V28H143.5V12H145.5V28H148V12H150V28H152.5V12H154.5V28H157V12H159V28H161.5V12H163.5V28H170V6H168V0.5H189V6H187V118H1.5V6H0V0H21V6H18.5V28H25.5V12H27.5V28H30V12H32V28H34.5V12H36.5V28H39V12H41V28H43.5V12H45.5V28H48V12H50V28H52.5V12H54.5V28H57V12H59V28H62V12H64V28H66.5V12H68.5V28H71V12H73V28H75.5V12H77.5V28H80V12H82V28ZM98 75.5H95.5V62.5H98V75.5ZM102.5 75.5H100V62.5H102.5V75.5ZM84.5 30V32H82V30H84.5ZM59 30V32H62V30H59ZM27.5 30H30V32H27.5V30ZM32 30V32H34.5V30H32ZM77.5 30H80V32H77.5V30ZM73 30H75.5V32H73V30ZM68.5 30H71V32H68.5V30ZM64 30H66.5V32H64V30ZM54.5 30H57V32H54.5V30ZM50 30H52.5V32H50V30ZM45.5 30H48V32H45.5V30ZM41 30H43.5V32H41V30ZM36.5 30H39V32H36.5V30ZM34.5 34H32V56.5H34.5V34ZM30 56.5V34H27.5V56.5H30ZM25.5 56.5V34H18.5V56.5H25.5ZM25.5 32V30H18.5V32H25.5ZM89 34V56.5H86.5V34H89ZM89 30V32H86.5V30H89ZM36.5 34V56.5H39V34H36.5ZM41 34V56.5H43.5V34H41ZM45.5 34V56.5H48V34H45.5ZM50 34V56.5H52.5V34H50ZM54.5 34V56.5H57V34H54.5ZM59 34V56.5H62V34H59ZM64 34V56.5H66.5V34H64ZM68.5 34V56.5H71V34H68.5ZM73 34V56.5H75.5V34H73ZM77.5 34V56.5H80V34H77.5ZM82 34V56.5H84.5V34H82ZM159 32V30H161.5V32H159ZM159 56.5V34H161.5V56.5H159ZM157 34V56.5H154.5V34H157ZM154.5 32V30H157V32H154.5ZM150 32V30H152.5V32H150ZM150 34H152.5V56.5H150V34ZM148 34V56.5H145.5V34H148ZM145.5 32V30H148V32H145.5ZM141 32V30H143.5V32H141ZM141 56.5V34H143.5V56.5H141ZM139 34V56.5H136.5V34H139ZM136.5 32V30H139V32H136.5ZM131.5 32V30H134.5V32H131.5ZM131.5 34H134.5V56.5H131.5V34ZM129.5 34V56.5H127V34H129.5ZM127 32V30H129.5V32H127ZM122.5 32V30H125V32H122.5ZM122.5 56.5V34H125V56.5H122.5ZM120.5 34V56.5H118V34H120.5ZM118 32V30H120.5V32H118ZM113.5 32V30H116V32H113.5ZM113.5 34H116V56.5H113.5V34ZM111.5 34V56.5H109V34H111.5ZM109 32V30H111.5V32H109ZM104.5 32V30H107V32H104.5ZM104.5 34H107V56.5H104.5V34ZM102.5 34V56.5H100V34H102.5ZM100 32V30H102.5V32H100ZM95.5 32V30H98V32H95.5ZM95.5 34H98V56.5H95.5V34ZM93.5 34V56.5H91V34H93.5ZM91 32V30H93.5V32H91ZM159 60.5H161.5V58.5H159V60.5ZM163.5 60.5H170V58.5H163.5V60.5ZM157 60.5H154.5V58.5H157V60.5ZM150 60.5H152.5V58.5H150V60.5ZM148 60.5H145.5V58.5H148V60.5ZM141 60.5H143.5V58.5H141V60.5ZM125 60.5H122.5V58.5H125V60.5ZM127 60.5V58.5H129.5V60.5H127ZM131.5 60.5V58.5H134.5V60.5H131.5ZM139 60.5H136.5V58.5H139V60.5ZM118 60.5H120.5V58.5H118V60.5ZM116 60.5H113.5V58.5H116V60.5ZM109 60.5H111.5V58.5H109V60.5ZM107 60.5H104.5V58.5H107V60.5ZM100 60.5H102.5V58.5H100V60.5ZM98 60.5H95.5V58.5H98V60.5ZM91 60.5H93.5V58.5H91V60.5ZM89 60.5H86.5V58.5H89V60.5ZM82 60.5H84.5V58.5H82V60.5ZM80 60.5H77.5V58.5H80V60.5ZM73 60.5H75.5V58.5H73V60.5ZM71 60.5H68.5V58.5H71V60.5ZM64 60.5H66.5V58.5H64V60.5ZM62 60.5H59V58.5H62V60.5ZM54.5 60.5H57V58.5H54.5V60.5ZM50 58.5H52.5V60.5H50V58.5ZM48 58.5H45.5V60.5H48V58.5ZM41 58.5H43.5V60.5H41V58.5ZM39 58.5H36.5V60.5H39V58.5ZM32 58.5H34.5V60.5H32V58.5ZM30 58.5H27.5V60.5H30V58.5ZM18.5 58.5H25.5V60.5H18.5V58.5ZM163.5 56.5H170V34H163.5V56.5ZM18.5 62.5H25.5V75.5H18.5V62.5ZM141 62.5H143.5V75.5H141V62.5ZM136.5 62.5H139V75.5H136.5V62.5ZM131.5 62.5H134.5V75.5H131.5V62.5ZM127 62.5H129.5V75.5H127V62.5ZM122.5 62.5H125V75.5H122.5V62.5ZM118 62.5H120.5V75.5H118V62.5ZM113.5 62.5H116V75.5H113.5V62.5ZM109 62.5H111.5V75.5H109V62.5ZM104.5 62.5H107V75.5H104.5V62.5ZM91 62.5H93.5V75.5H91V62.5ZM86.5 62.5H89V75.5H86.5V62.5ZM82 62.5H84.5V75.5H82V62.5ZM77.5 62.5H80V75.5H77.5V62.5ZM73 62.5H75.5V75.5H73V62.5ZM68.5 62.5H71V75.5H68.5V62.5ZM64 62.5H66.5V75.5H64V62.5ZM59 62.5H62V75.5H59V62.5ZM54.5 62.5H57V75.5H54.5V62.5ZM50 62.5H52.5V75.5H50V62.5ZM45.5 62.5H48V75.5H45.5V62.5ZM41 62.5H43.5V75.5H41V62.5ZM36.5 62.5H39V75.5H36.5V62.5ZM32 62.5H34.5V75.5H32V62.5ZM27.5 62.5H30V75.5H27.5V62.5ZM145.5 62.5H148V75.5H145.5V62.5ZM150 62.5H152.5V75.5H150V62.5ZM154.5 62.5H157V75.5H154.5V62.5ZM159 62.5H161.5V75.5H159V62.5ZM170 62.5H163.5V75.5H170V62.5ZM163.5 32H170V30H163.5V32Z" fill="black"/>
</svg>
