<svg width="77" height="106" viewBox="0 0 77 106" fill="none" xmlns="http://www.w3.org/2000/svg">
<path d="M17.9182 26.2041H61.5031V38.5855H17.9182V26.2041Z" fill="black"/>
<path d="M6.01562 0H0V106H77V0H6.01562ZM70.6836 97.9592H6.01562V8.40631H70.6836V97.9592Z" fill="black"/>
<path d="M45.7813 17.3878C45.7813 20.7691 43.0366 23.5102 39.6507 23.5102C36.2649 23.5102 33.5202 20.7691 33.5202 17.3878C33.5202 14.0064 36.2649 11.2653 39.6507 11.2653C43.0366 11.2653 45.7813 14.0064 45.7813 17.3878Z" fill="black"/>
<path d="M18.674 46.0686H28.4459V72.4898H18.674V46.0686Z" fill="black"/>
<path d="M35.3491 46.0686H45.121V55.8367H35.3491V46.0686Z" fill="black"/>
<path d="M51.9873 46.0686H61.7592V55.8367H51.9873V46.0686Z" fill="black"/>
<path d="M35.3491 62.7216H45.121V72.4898H35.3491V62.7216Z" fill="black"/>
<path d="M51.9873 62.7216H61.7592V72.4898H51.9873V62.7216Z" fill="black"/>
<path d="M18.674 79.3469H28.4459V89.1151H18.674V79.3469Z" fill="black"/>
<path d="M35.3491 79.3469H61.5031V89.1151H35.3491V79.3469Z" fill="black"/>
</svg>
