<svg width="115" height="116" viewBox="0 0 115 116" fill="none" xmlns="http://www.w3.org/2000/svg">
<path d="M0 0H115V116H107.303V10.875H8.14961V116H0V0Z" fill="black"/>
<path d="M18.563 29H97.7953V103.766H90.0984V33.5312H25.8071V103.766H18.563V29Z" fill="black"/>
<path d="M13.5827 16.7656H19.0157L23.9961 23.5625H28.0709L23.0906 16.7656H30.7874L35.315 23.5625H38.0315L33.9567 16.7656H41.2008L44.8228 23.5625H47.0866L43.9173 16.7656H51.6142L53.878 24.0156H56.1417L54.3307 16.7656H62.0276L60.2165 24.0156H62.4803L64.2913 16.7656H71.9882L69.2717 24.0156H71.9882L75.1575 16.7656H82.8543L77.874 24.0156H81.0433L86.0236 16.7656H94.1732L87.8346 24.0156H90.5512L96.437 16.7656H102.323V24.4688L97.7953 29H18.563L13.5827 24.4688V16.7656Z" fill="black"/>
</svg>
