<svg width="119" height="118" viewBox="0 0 119 118" fill="none" xmlns="http://www.w3.org/2000/svg">
<path fill-rule="evenodd" clip-rule="evenodd" d="M21 0H0V6H1.5V118H117V6H119V0.5H98V6H100V112.5H18.5V6H21V0Z" fill="black"/>
<path fill-rule="evenodd" clip-rule="evenodd" d="M87.2857 60V59.5V33.3449V25.5L21 12V19V59.5V110L87.2857 100.968V60ZM26.5 20.5L37 22.6694V59.5H26.5V20.5ZM53.12 59.5H44V24.1157L53.12 26V59.5ZM81.7257 32.1376L74.06 30.4731V59.5H81.7257V32.1376ZM68.5 29.2659V59.5H60.12V27.4463L68.5 29.2659Z" fill="black"/>
</svg>
