<svg width="188" height="120" viewBox="0 0 188 120" fill="none" xmlns="http://www.w3.org/2000/svg">
<path d="M0 0H188V22H0V0Z" fill="black"/>
<path fill-rule="evenodd" clip-rule="evenodd" d="M94 26.5L111 26.5904V26.5H94Z" fill="black"/>
<path d="M111 26.5904L94 26.5L0 26V29V102C0 102 1 118.5 14.5 118.5C21.9138 118.5 25.2561 113.524 26.763 109.037C28.6774 112.935 32.6706 117 41 117C49.0644 117 53.0641 113.189 55.0479 109.409C57 105.69 57 102 57 102V29.3032L79 29.4202V102C79 102 79 104.496 80.086 107.451C81.6623 111.742 85.5266 117 95 117C102.592 117 106.581 113.623 108.678 110.073C110.462 114.551 114.106 119.5 121.5 119.5C128.914 119.5 132.256 114.524 133.763 110.037C135.677 113.935 139.671 118 148 118C155.892 118 159.891 114.35 161.918 110.652C163.782 114.966 167.423 119.5 174.5 119.5C188 119.5 188 103 188 103V30V27L111 26.5904ZM188 30L185 29.984V103C185 103 185 116 174.5 116C164 116 164 103 164 103V29.8723L188 30ZM132 29.7021V103C132 103 132 115 121.5 115C111 115 111 102 111 102V29.5904L132 29.7021ZM14.5 114C4 114 4 102 4 102V29.0213L25 29.133V102C25 102 25 114 14.5 114Z" fill="black"/>
<path fill-rule="evenodd" clip-rule="evenodd" d="M79 102C79 102 79 104.496 80.086 107.451C80.086 107.451 79.8817 108.147 79.763 108.5C78.2561 112.987 74.9138 116.5 67.5 116.5C60.5844 116.5 56.949 113.633 55.0479 109.409C57 105.69 57 102 57 102C57 102 57 113.463 67.5 113.463C78 113.463 79 102 79 102Z" fill="black"/>
</svg>
